# xmcd CD database file
#
# Track frame offsets:
#	150
#	38855
#	83795
#
# Disc length: 1595 seconds
#
# Revision: 0
# Processed by: cddbd v1.5.1PL2 Copyright (c) Steve Scherf et al.
# Submitted via: CDex 1.51
#
DISCID=1a063903
DTITLE=MANHATTAN JAZZ QUINTET - face to face
DYEAR=1989
DGENRE=Jazz
TTITLE0=FACE TO FACE
TTITLE1=TAKE FIVE
TTITLE2=WORK SONG
EXTD=YEAR: 1989
EXTT0=
EXTT1=
EXTT2=
PLAYORDER=
